<?xml version="1.0" encoding="UTF-8" standalone="no"?>
<!DOCTYPE svg PUBLIC "-//W3C//DTD SVG 1.1//EN"
"http://www.w3.org/Graphics/SVG/1.1/DTD/svg11.dtd">


<!-- Page 1 -->
<svg viewBox="0 0 100 100" version="1.1" xmlns="http://www.w3.org/2000/svg" xmlns:xlink="http://www.w3.org/1999/xlink">

<g fill="green">
<use xlink:href="#x1" x="0" y="0" />
<use xlink:href="#x2" x="10" y="0" />
<use xlink:href="#x3" x="20" y="0" />
<use xlink:href="#x4" x="30" y="0" />
<use xlink:href="#x5" x="40" y="0" />
<use xlink:href="#x6" x="50" y="0" />
<use xlink:href="#x7" x="60" y="0" />
<use xlink:href="#x8" x="70" y="0" />
<use xlink:href="#x9" x="80" y="0" />
<use xlink:href="#x10" x="90" y="0" />
</g>

<g fill="green">
<use xlink:href="#x11" x="0" y="10" />
<use xlink:href="#x12" x="10" y="10" />
<use xlink:href="#x13" x="20" y="10" />
<use xlink:href="#x14" x="30" y="10" />
<use xlink:href="#x15" x="40" y="10" />
<use xlink:href="#x16" x="50" y="10" />
<use xlink:href="#x17" x="60" y="10" />
<use xlink:href="#x18" x="70" y="10" />
<use xlink:href="#x19" x="80" y="10" />
<use xlink:href="#x20" x="90" y="10" />
</g>

<g fill="green">
<use xlink:href="#x21" x="0" y="20" />
<use xlink:href="#x22" x="10" y="20" />
<use xlink:href="#x23" x="20" y="20" />
<use xlink:href="#x24" x="30" y="20" />
<use xlink:href="#x25" x="40" y="20" />
<use xlink:href="#x26" x="50" y="20" />
<use xlink:href="#x27" x="60" y="20" />
<use xlink:href="#x28" x="70" y="20" />
<use xlink:href="#x29" x="80" y="20" />
<use xlink:href="#x30" x="90" y="20" />
</g>

<g fill="green">
<use xlink:href="#x31" x="0" y="30" />
<use xlink:href="#x32" x="10" y="30" />
<use xlink:href="#x33" x="20" y="30" />
<use xlink:href="#x34" x="30" y="30" />
<use xlink:href="#x35" x="40" y="30" />
<use xlink:href="#x36" x="50" y="30" />
<use xlink:href="#x37" x="60" y="30" />
<use xlink:href="#x38" x="70" y="30" />
<use xlink:href="#x39" x="80" y="30" />
<use xlink:href="#x40" x="90" y="30" />
</g>

<g fill="green">
<use xlink:href="#x41" x="0" y="40" />
<use xlink:href="#x42" x="10" y="40" />
<use xlink:href="#x43" x="20" y="40" />
<use xlink:href="#x44" x="30" y="40" />
<use xlink:href="#x45" x="40" y="40" />
<use xlink:href="#x46" x="50" y="40" />
<use xlink:href="#x47" x="60" y="40" />
<use xlink:href="#x48" x="70" y="40" />
<use xlink:href="#x49" x="80" y="40" />
<use xlink:href="#x50" x="90" y="40" />
</g>

<g fill="green">
<use xlink:href="#x51" x="0" y="50" />
<use xlink:href="#x52" x="10" y="50" />
<use xlink:href="#x53" x="20" y="50" />
<use xlink:href="#x54" x="30" y="50" />
<use xlink:href="#x55" x="40" y="50" />
<use xlink:href="#x56" x="50" y="50" />
<use xlink:href="#x57" x="60" y="50" />
<use xlink:href="#x58" x="70" y="50" />
<use xlink:href="#x59" x="80" y="50" />
<use xlink:href="#x60" x="90" y="50" />
</g>

<g fill="green">
<use xlink:href="#x61" x="0" y="60" />
<use xlink:href="#x62" x="10" y="60" />
<use xlink:href="#x63" x="20" y="60" />
<use xlink:href="#x64" x="30" y="60" />
<use xlink:href="#x65" x="40" y="60" />
<use xlink:href="#x66" x="50" y="60" />
<use xlink:href="#x67" x="60" y="60" />
<use xlink:href="#x68" x="70" y="60" />
<use xlink:href="#x69" x="80" y="60" />
<use xlink:href="#x70" x="90" y="60" />
</g>

<g fill="green">
<use xlink:href="#x71" x="0" y="70" />
<use xlink:href="#x72" x="10" y="70" />
<use xlink:href="#x73" x="20" y="70" />
<use xlink:href="#x74" x="30" y="70" />
<use xlink:href="#x75" x="40" y="70" />
<use xlink:href="#x76" x="50" y="70" />
<use xlink:href="#x77" x="60" y="70" />
<use xlink:href="#x78" x="70" y="70" />
<use xlink:href="#x79" x="80" y="70" />
<use xlink:href="#x80" x="90" y="70" />
</g>

<g fill="green">
<use xlink:href="#x81" x="0" y="80" />
<use xlink:href="#x82" x="10" y="80" />
<use xlink:href="#x83" x="20" y="80" />
<use xlink:href="#x84" x="30" y="80" />
<use xlink:href="#x85" x="40" y="80" />
<use xlink:href="#x86" x="50" y="80" />
<use xlink:href="#x87" x="60" y="80" />
<use xlink:href="#x88" x="70" y="80" />
<use xlink:href="#x89" x="80" y="80" />
<use xlink:href="#x90" x="90" y="80" />
</g>

<g fill="green">
<use xlink:href="#x91" x="0" y="90" />
<use xlink:href="#x92" x="10" y="90" />
<use xlink:href="#x93" x="20" y="90" />
<use xlink:href="#x94" x="30" y="90" />
<use xlink:href="#x95" x="40" y="90" />
<use xlink:href="#x96" x="50" y="90" />
<use xlink:href="#x97" x="60" y="90" />
<use xlink:href="#x98" x="70" y="90" />
<use xlink:href="#x99" x="80" y="90" />
<use xlink:href="#x100" x="90" y="90" />
</g>

<defs>
    <rect id="x1" width="10" height="10" fill="green"/>
    <rect id="x2" width="10" height="10" fill="green"/>
    <rect id="x3" width="10" height="10" fill="green"/>
    <rect id="x4" width="10" height="10" fill="green"/>
    <rect id="x5" width="10" height="10" fill="green"/>
    <rect id="x6" width="10" height="10" fill="green"/>
    <rect id="x7" width="10" height="10" fill="green"/>
    <rect id="x8" width="10" height="10" fill="green"/>
    <rect id="x9" width="10" height="10" fill="green"/>
    <rect id="x10" width="10" height="10" fill="green"/>

    <rect id="x11" width="10" height="10" fill="green"/>
    <rect id="x12" width="10" height="10" fill="green"/>
    <rect id="x13" width="10" height="10" fill="green"/>
    <rect id="x14" width="10" height="10" fill="green"/>
    <rect id="x15" width="10" height="10" fill="green"/>
    <rect id="x16" width="10" height="10" fill="green"/>
    <rect id="x17" width="10" height="10" fill="green"/>
    <rect id="x18" width="10" height="10" fill="green"/>
    <rect id="x19" width="10" height="10" fill="green"/>
    <rect id="x20" width="10" height="10" fill="green"/>

    <rect id="x21" width="10" height="10" fill="green"/>
    <rect id="x22" width="10" height="10" fill="green"/>
    <rect id="x23" width="10" height="10" fill="green"/>
    <rect id="x24" width="10" height="10" fill="green"/>
    <rect id="x25" width="10" height="10" fill="green"/>
    <rect id="x26" width="10" height="10" fill="green"/>
    <rect id="x27" width="10" height="10" fill="green"/>
    <rect id="x28" width="10" height="10" fill="green"/>
    <rect id="x29" width="10" height="10" fill="green"/>
    <rect id="x30" width="10" height="10" fill="green"/>

    <rect id="x31" width="10" height="10" fill="green"/>
    <rect id="x32" width="10" height="10" fill="green"/>
    <rect id="x33" width="10" height="10" fill="green"/>
    <rect id="x34" width="10" height="10" fill="green"/>
    <rect id="x35" width="10" height="10" fill="green"/>
    <rect id="x36" width="10" height="10" fill="green"/>
    <rect id="x37" width="10" height="10" fill="green"/>
    <rect id="x38" width="10" height="10" fill="green"/>
    <rect id="x39" width="10" height="10" fill="green"/>
    <rect id="x40" width="10" height="10" fill="green"/>

    <rect id="x41" width="10" height="10" fill="green"/>
    <rect id="x42" width="10" height="10" fill="green"/>
    <rect id="x43" width="10" height="10" fill="green"/>
    <rect id="x44" width="10" height="10" fill="green"/>
    <rect id="x45" width="10" height="10" fill="green"/>
    <rect id="x46" width="10" height="10" fill="green"/>
    <rect id="x47" width="10" height="10" fill="green"/>
    <rect id="x48" width="10" height="10" fill="green"/>
    <rect id="x49" width="10" height="10" fill="green"/>
    <rect id="x50" width="10" height="10" fill="green"/>

    <rect id="x51" width="10" height="10" fill="green"/>
    <rect id="x52" width="10" height="10" fill="green"/>
    <rect id="x53" width="10" height="10" fill="green"/>
    <rect id="x54" width="10" height="10" fill="green"/>
    <rect id="x55" width="10" height="10" fill="green"/>
    <rect id="x56" width="10" height="10" fill="green"/>
    <rect id="x57" width="10" height="10" fill="green"/>
    <rect id="x58" width="10" height="10" fill="green"/>
    <rect id="x59" width="10" height="10" fill="green"/>
    <rect id="x60" width="10" height="10" fill="green"/>

    <rect id="x61" width="10" height="10" fill="green"/>
    <rect id="x62" width="10" height="10" fill="green"/>
    <rect id="x63" width="10" height="10" fill="green"/>
    <rect id="x64" width="10" height="10" fill="green"/>
    <rect id="x65" width="10" height="10" fill="green"/>
    <rect id="x66" width="10" height="10" fill="green"/>
    <rect id="x67" width="10" height="10" fill="green"/>
    <rect id="x68" width="10" height="10" fill="green"/>
    <rect id="x69" width="10" height="10" fill="green"/>
    <rect id="x70" width="10" height="10" fill="green"/>

    <rect id="x71" width="10" height="10" fill="green"/>
    <rect id="x72" width="10" height="10" fill="green"/>
    <rect id="x73" width="10" height="10" fill="green"/>
    <rect id="x74" width="10" height="10" fill="green"/>
    <rect id="x75" width="10" height="10" fill="green"/>
    <rect id="x76" width="10" height="10" fill="green"/>
    <rect id="x77" width="10" height="10" fill="green"/>
    <rect id="x78" width="10" height="10" fill="green"/>
    <rect id="x79" width="10" height="10" fill="green"/>
    <rect id="x80" width="10" height="10" fill="green"/>

    <rect id="x81" width="10" height="10" fill="green"/>
    <rect id="x82" width="10" height="10" fill="green"/>
    <rect id="x83" width="10" height="10" fill="green"/>
    <rect id="x84" width="10" height="10" fill="green"/>
    <rect id="x85" width="10" height="10" fill="green"/>
    <rect id="x86" width="10" height="10" fill="green"/>
    <rect id="x87" width="10" height="10" fill="green"/>
    <rect id="x88" width="10" height="10" fill="green"/>
    <rect id="x89" width="10" height="10" fill="green"/>
    <rect id="x90" width="10" height="10" fill="green"/>

    <rect id="x91" width="10" height="10" fill="green"/>
    <rect id="x92" width="10" height="10" fill="green"/>
    <rect id="x93" width="10" height="10" fill="green"/>
    <rect id="x94" width="10" height="10" fill="green"/>
    <rect id="x95" width="10" height="10" fill="green"/>
    <rect id="x96" width="10" height="10" fill="green"/>
    <rect id="x97" width="10" height="10" fill="green"/>
    <rect id="x98" width="10" height="10" fill="green"/>
    <rect id="x99" width="10" height="10" fill="green"/>
    <rect id="x100" width="10" height="10" fill="green"/>
</defs>

</svg>